<svg width="880" height="880" viewBox="0 0 880 880" fill="none" xmlns="http://www.w3.org/2000/svg">
<rect width="880" height="880" fill="url(#paint0_linear_769_5)"/>
<path d="M261.54 452.56H275.34V455.16H261.54V452.56ZM260.26 431.2H263.02V457.2H260.26V431.2ZM261.54 431.2H274.86V441.16H261.54V438.68H272.1V433.68H261.54V431.2ZM257.86 424.76H277.5V431.52H274.7V427.28H260.58V431.52H257.86V424.76ZM265.98 420.4H268.9V426.12H265.98V420.4ZM261.54 444.56H276.54V456.92H273.74V447.08H261.54V444.56ZM249.02 427.2H251.58V432.16H249.02V427.2ZM243.78 430.96H246.46V453.28H243.78V430.96ZM245.46 436.4H254.74V438.52H245.46V436.4ZM241.02 452.8C244.42 452.08 249.5 450.8 254.46 449.56L254.74 452C250.3 453.32 245.54 454.64 241.94 455.6L241.02 452.8ZM250.46 446.56L252.82 445.48C254.98 448.28 257.14 452.04 257.9 454.56L255.38 455.76C254.58 453.28 252.54 449.4 250.46 446.56ZM245.26 430.96H256.06V444.04H245.26V441.72H253.38V433.28H245.26V430.96ZM248.18 420.44H249.82V421.08H250.7V421.88C249.06 424.96 246.3 429.24 242.1 432.68C241.7 432.04 240.86 431.16 240.22 430.76C244.06 427.72 246.74 423.64 248.18 420.44ZM248.94 420.44H251.1C253.54 422.48 256.38 425.44 257.7 427.48L255.7 429.68C254.46 427.68 251.86 424.4 249.5 422.48H248.94V420.44ZM297.54 436.64L299.78 435.04C303.86 438.56 309.06 443.56 311.62 446.68L309.14 448.6C306.74 445.44 301.62 440.32 297.54 436.64ZM297.98 420.4H301.06V428.24C301.06 434.64 299.9 443.08 289.58 449.12C289.18 448.48 288.14 447.4 287.46 446.88C297.46 441.48 297.98 433.76 297.98 428.24V420.4ZM283.42 427.24H314.02V430.2H286.42V457.28H283.42V427.24ZM312.66 427.24H315.62V453.24C315.62 455.2 315.14 456.16 313.78 456.68C312.38 457.16 309.9 457.2 306.3 457.2C306.18 456.36 305.7 454.96 305.3 454.12C308.14 454.24 310.86 454.24 311.66 454.2C312.42 454.16 312.66 453.92 312.66 453.24V427.24ZM356.62 428.64C356.22 429.08 355.86 429.52 355.62 429.88C352.62 434.8 347.1 441.84 340.02 446.96L337.54 444.72C343.94 440.28 349.1 433.8 351.22 430C347.62 430 329.98 430 327.7 430C326.1 430 324.38 430.12 323.62 430.2V426.64C324.7 426.8 326.3 426.92 327.7 426.92C329.74 426.92 347.54 426.92 351.54 426.92C352.62 426.92 353.54 426.84 354.1 426.64L356.62 428.64ZM337.78 447.64C335.38 445.24 330.78 441.28 328.66 439.76L331.22 437.68C333.06 439 337.7 442.8 340.58 445.6C343.1 448.12 346.22 451.4 347.94 453.48L345.02 455.8C343.54 453.76 340.34 450.24 337.78 447.64ZM378.82 431C379.5 432.6 381.46 437.88 381.94 439.6L378.98 440.68C378.54 438.84 376.7 433.76 375.86 432L378.82 431ZM393.3 433.24C393.02 434.04 392.82 434.68 392.66 435.2C391.62 439.6 389.86 443.92 387.02 447.52C383.3 452.2 378.42 455.32 373.98 457L371.34 454.32C375.94 452.96 381.06 449.92 384.34 445.84C387.18 442.36 389.22 437.24 389.86 432.12L393.3 433.24ZM369.5 433C370.3 434.68 372.42 439.92 373.14 442.04L370.14 443.16C369.5 441.08 367.34 435.52 366.54 434.12L369.5 433ZM431.7 425.28C431.7 426.76 432.86 427.92 434.34 427.92C435.78 427.92 436.98 426.76 436.98 425.28C436.98 423.84 435.78 422.64 434.34 422.64C432.86 422.64 431.7 423.84 431.7 425.28ZM429.86 425.28C429.86 422.8 431.86 420.8 434.34 420.8C436.82 420.8 438.82 422.8 438.82 425.28C438.82 427.76 436.82 429.76 434.34 429.76C431.86 429.76 429.86 427.76 429.86 425.28ZM433.34 427.96C433.06 428.52 432.9 429.2 432.74 429.96C431.86 434.16 429.94 440.64 426.74 444.72C423.1 449.44 418.34 453.12 411.02 455.44L408.3 452.44C416.06 450.48 420.54 447.08 423.9 442.8C426.74 439.2 428.58 433.6 429.14 429.76C426.82 429.76 410.98 429.76 408.66 429.76C407.06 429.76 405.7 429.84 404.7 429.92V426.36C405.78 426.48 407.38 426.64 408.7 426.64C410.98 426.64 426.94 426.64 428.74 426.64C429.38 426.64 430.14 426.6 430.9 426.4L433.34 427.96ZM446.74 421.32L449.7 422.2C447.98 425.68 445.34 429.32 442.86 431.68C442.3 431.16 441.14 430.12 440.42 429.68C442.9 427.56 445.26 424.44 446.74 421.32ZM451.98 422.6L454.26 421.2C456.5 423.28 459.14 426.24 460.3 428.2L457.9 429.84C456.74 427.84 454.22 424.76 451.98 422.6ZM444.5 440.84H447.3V456.84H444.5V440.84ZM445.94 440.84H457.66V454.44H445.94V451.72H454.86V443.56H445.94V440.84ZM462.98 427.32H475.82V430.08H462.98V427.32ZM468.26 428.44H469.66V436.36C469.66 439.6 470.98 449.68 478.66 454.68C478.14 455.36 477.26 456.56 476.82 457.28C470.86 453.36 468.62 445.76 468.22 442.44C467.78 445.88 465.26 453.16 458.46 457.28C458.1 456.64 457.22 455.44 456.7 454.84C465.42 449.68 466.78 439.72 466.74 436.36V428.44H468.26ZM463.22 420.4L466.3 420.84C465.22 427.48 463.34 433.68 460.58 437.72C459.98 437.24 458.66 436.4 457.9 436.04C460.62 432.36 462.34 426.48 463.22 420.4ZM474.98 427.32H475.42L475.9 427.16L477.9 427.76C477.3 431.2 476.38 435.36 475.5 437.88L473.1 437.2C473.86 434.84 474.58 430.92 474.98 427.84V427.32ZM449.46 429.72H451.18V430.4H452.1V431.28C450.18 434.84 446.98 439.68 442.18 443.6C441.74 442.92 440.82 441.96 440.14 441.52C444.58 438.04 447.78 433.4 449.46 429.72ZM449.98 429.72H452.34C455.38 432.48 458.9 436.4 460.5 439.08L458.22 441.36C456.7 438.72 453.46 434.44 450.5 431.84H449.98V429.72ZM493.1 422.84C492.9 424.16 492.78 425.56 492.7 426.88C492.54 431.4 492.22 440.88 492.22 446.84C492.22 451.24 494.98 452.76 498.78 452.76C506.1 452.76 510.26 448.68 513.14 444.52L515.38 447.24C512.66 451.04 507.46 456.04 498.7 456.04C492.94 456.04 488.98 453.68 488.98 447.12C488.98 441.2 489.38 431.08 489.38 426.88C489.38 425.4 489.26 424 489.02 422.84H493.1ZM547.66 424.52C546.78 425.16 545.54 426.24 544.9 426.8C542.14 429.2 536.38 433.72 533.42 436.2C531.02 438.28 530.98 438.88 533.58 441.04C537.22 444.04 544.3 449.72 548.54 454L545.7 456.6C544.86 455.64 543.9 454.68 542.94 453.68C540.1 450.8 534.06 445.6 530.3 442.52C526.54 439.36 526.98 437.64 530.58 434.6C533.62 432.08 539.7 427.28 542.38 424.56C543.18 423.76 544.22 422.6 544.66 421.88L547.66 424.52ZM596.66 452.6C593.02 448.4 589.42 445.8 584.98 445.8C582.94 445.8 581.02 446.92 581.02 448.64C581.02 450.72 582.94 451.64 585.18 451.64C590.34 451.64 591.42 445.96 591.42 438.92C591.42 433.92 589.06 430.76 585.66 430.76C581.54 430.76 575.58 435.48 572.1 439.56L572.18 435.72C575.5 432.56 581.18 427.92 586.22 427.92C591.58 427.92 594.46 432.8 594.46 439.36C594.46 448.64 592.38 454.44 585.38 454.44C581.54 454.44 578.3 452.84 578.3 448.8C578.3 445.56 581.18 443.28 585.26 443.28C590.1 443.28 594.06 445.4 598.42 450L596.66 452.6ZM571.58 431.88C570.26 432.08 565.94 432.6 562.98 433.04L562.62 429.76C563.5 429.8 564.26 429.76 565.26 429.72C567.38 429.6 572.38 428.96 574.22 428.36L575.42 429.76C574.7 430.76 573.62 432.52 572.94 433.64L571.74 439.08C569.9 441.92 566.14 447.28 563.66 450.8L561.66 448.08C564.14 444.96 569.54 437.6 571.1 434.96L571.26 432.92L571.58 431.88ZM571.18 425.24C571.18 424.32 571.22 423.28 571.06 422.28L574.78 422.4C574.26 425 573.02 436.44 573.02 443.48C573.02 447.12 573.02 449.56 573.18 453.12C573.22 453.8 573.34 454.8 573.38 455.56H569.94C569.98 455 570.06 453.84 570.06 453.2C570.06 449.32 570.1 447.32 570.14 442.92C570.22 439.4 571.18 426.72 571.18 425.24ZM617.26 444.36C616.06 437.68 625.46 435.92 625.46 431.36C625.46 428.6 623.5 426.6 619.42 426.6C616.66 426.6 614.14 427.8 611.82 430.2L609.7 428.24C612.34 425.44 615.46 423.56 619.78 423.56C625.42 423.56 629.06 426.48 629.06 431.08C629.06 437.12 619.5 438.36 620.54 444.36H617.26ZM618.98 454.2C617.54 454.2 616.42 453.2 616.42 451.6C616.42 450 617.58 448.92 618.98 448.92C620.38 448.92 621.54 450 621.54 451.6C621.54 453.2 620.38 454.2 618.98 454.2Z" fill="black"/>
<defs>
<linearGradient id="paint0_linear_769_5" x1="440" y1="0" x2="440" y2="880" gradientUnits="userSpaceOnUse">
<stop stop-color="white"/>
<stop offset="1" stop-color="#BBBBBB"/>
</linearGradient>
</defs>
</svg>
